<?xml version="1.0" encoding="utf-8"?>
<!-- Generator: Adobe Illustrator 21.0.0, SVG Export Plug-In . SVG Version: 6.00 Build 0)  -->
<svg version="1.1" id="Слой_1" xmlns="http://www.w3.org/2000/svg" xmlns:xlink="http://www.w3.org/1999/xlink" x="0px" y="0px"
	 viewBox="0 0 32 26" style="enable-background:new 0 0 32 26;" xml:space="preserve">
<style type="text/css">
	.st0{fill:#2196F3;stroke:#2196F3;stroke-miterlimit:10;}
	.st1{fill:url(#SVGID_1_);}
	.st2{opacity:5.000000e-02;}
	.st3{fill:#FFFFFF;}
	.st4{fill:none;stroke:#FFFFFF;stroke-width:0.803;stroke-miterlimit:10;}
	.st5{fill:url(#SVGID_2_);stroke:#FFFFFF;stroke-width:0.8032;stroke-miterlimit:10;}
	.st6{fill:none;stroke:#FFFFFF;stroke-miterlimit:10;}
	.st7{fill:#155AC2;}
	.st8{fill:#8CC63F;}
	.st9{fill:#E6E6E6;}
	.st10{fill:#F2F2F2;}
	.st11{fill:#ECEFF7;}
	.st12{fill:#FFC004;}
	.st13{fill:none;stroke:#999999;stroke-miterlimit:10;}
	.st14{fill-rule:evenodd;clip-rule:evenodd;fill:#FFFFFF;}
	.st15{fill:url(#SVGID_9_);}
	.st16{fill:none;stroke:#FFFFFF;stroke-width:4;stroke-miterlimit:10;}
	.st17{fill:#FFCD36;}
	.st18{fill:url(#SVGID_10_);}
	.st19{fill:none;stroke:#3C5DA1;stroke-width:4;stroke-miterlimit:10;}
	.st20{fill:none;stroke:#D4D7DE;stroke-miterlimit:10;}
	.st21{fill:url(#SVGID_11_);}
	.st22{fill:#D3EAFD;}
	.st23{fill:#A6D5FA;}
	.st24{fill:#7AC0F8;}
</style>
<path class="st3" d="M31.5,3.4c-1.1,0.5-2.4,0.8-3.7,1c1.3-0.8,2.3-2,2.8-3.5c-1.2,0.7-2.6,1.3-4,1.5c-1.2-1.2-2.8-2-4.6-2
	c-3.5,0-6.4,2.8-6.4,6.4c0,0.5,0.1,1,0.2,1.4c-5.3-0.3-10-2.8-13.1-6.6c-0.5,0.9-0.9,2-0.9,3.2c0,2.2,1.1,4.2,2.8,5.3
	c-1,0-2-0.3-2.9-0.8v0.1c0,3.1,2.2,5.7,5.1,6.2c-0.5,0.1-1.1,0.2-1.7,0.2c-0.4,0-0.8,0-1.2-0.1c0.8,2.5,3.2,4.4,5.9,4.4
	C7.7,21.8,5,22.8,2,22.8c-0.5,0-1,0-1.5-0.1c2.8,1.8,6.2,2.9,9.7,2.9c11.7,0,18.1-9.7,18.1-18.1c0-0.3,0-0.6,0-0.8
	C29.6,5.8,30.6,4.7,31.5,3.4"/>
</svg>
