<?xml version="1.0" encoding="utf-8"?>
<!-- Generator: Adobe Illustrator 21.0.0, SVG Export Plug-In . SVG Version: 6.00 Build 0)  -->
<svg version="1.1" id="Layer_1" xmlns="http://www.w3.org/2000/svg" xmlns:xlink="http://www.w3.org/1999/xlink" x="0px" y="0px"
	 viewBox="0 0 32.8 32" style="enable-background:new 0 0 32.8 32;" xml:space="preserve">
<style type="text/css">
	.st0{fill-rule:evenodd;clip-rule:evenodd;fill:#191717;}
	.st1{fill-rule:evenodd;clip-rule:evenodd;fill:#FFFFFF;}
	.st2{fill:#191717;}
	.st3{fill:none;stroke:#1981BC;stroke-linecap:round;stroke-miterlimit:10;}
	.st4{fill:none;stroke:#1981BC;stroke-linecap:round;stroke-miterlimit:10;stroke-dasharray:0.9999,1.9999;}
	.st5{fill:#0072BC;}
	.st6{fill:#FFFFFF;}
</style>
<path class="st1" d="M16.4,0.4c-8.8,0-16,7.2-16,16c0,7.1,4.6,13.1,10.9,15.2c0.8,0.1,1.1-0.3,1.1-0.8c0-0.4,0-1.4,0-2.7
	C8,29.1,7,25.9,7,25.9c-0.7-1.8-1.8-2.3-1.8-2.3c-1.5-1,0.1-1,0.1-1c1.6,0.1,2.5,1.6,2.5,1.6c1.4,2.4,3.7,1.7,4.7,1.3
	c0.1-1,0.6-1.7,1-2.1c-3.6-0.4-7.3-1.8-7.3-7.9c0-1.7,0.6-3.2,1.6-4.3C7.7,10.9,7.1,9.2,8,7c0,0,1.3-0.4,4.4,1.6
	c1.3-0.4,2.6-0.5,4-0.5c1.4,0,2.7,0.2,4,0.5C23.5,6.6,24.8,7,24.8,7c0.9,2.2,0.3,3.8,0.2,4.2c1,1.1,1.6,2.5,1.6,4.3
	c0,6.1-3.7,7.5-7.3,7.9c0.6,0.5,1.1,1.5,1.1,3c0,2.1,0,3.9,0,4.4c0,0.4,0.3,0.9,1.1,0.8c6.4-2.1,10.9-8.1,10.9-15.2
	C32.4,7.6,25.2,0.4,16.4,0.4z"/>
</svg>
