<?xml version="1.0" encoding="utf-8"?>
<!-- Generator: Adobe Illustrator 21.0.0, SVG Export Plug-In . SVG Version: 6.00 Build 0)  -->
<svg version="1.1" id="Layer_1" xmlns="http://www.w3.org/2000/svg" xmlns:xlink="http://www.w3.org/1999/xlink" x="0px" y="0px"
	 viewBox="0 0 125 125" style="enable-background:new 0 0 125 125;" xml:space="preserve">
<style type="text/css">
	.st0{fill:#FFFFFF;}
</style>
<g>
	
		<rect x="53.8" y="54.2" transform="matrix(0.9482 -0.3176 0.3176 0.9482 -16.6451 23.0899)" class="st0" width="17.4" height="16.9"/>
	<g>
		
			<rect x="53.8" y="54.2" transform="matrix(0.9482 -0.3176 0.3176 0.9482 -16.6451 23.0899)" class="st0" width="17.4" height="16.9"/>
		<path class="st0" d="M119.3,45.4C106.5,2.8,88.1-7.1,45.4,5.7S-7.1,36.9,5.7,79.6s31.2,52.5,73.9,39.8S132.1,88.1,119.3,45.4z
			 M97.8,73.1l-8,2.7l2.8,8.3c1.1,3.4-0.7,7-4.1,8.1c-0.7,0.2-1.5,0.4-2.2,0.3c-2.6-0.1-5.1-1.8-5.9-4.4l-2.8-8.3L61,85.4l2.8,8.3
			c1.1,3.4-0.7,7-4.1,8.1c-0.7,0.2-1.5,0.4-2.2,0.3c-2.6-0.1-5.1-1.8-5.9-4.4l-2.8-8.3l-8,2.7c-0.7,0.2-1.5,0.4-2.2,0.3
			c-2.6-0.1-5.1-1.8-5.9-4.4c-1.1-3.4,0.7-7,4.1-8.1l8-2.7l-5.4-16l-8,2.7c-0.7,0.2-1.5,0.4-2.2,0.3c-2.6-0.1-5.1-1.8-5.9-4.4
			c-1.1-3.4,0.7-7,4.1-8.1l8-2.7l-2.8-8.3c-1.1-3.4,0.7-7,4.1-8.1c3.4-1.1,7,0.7,8.1,4.1l2.8,8.3l16.6-5.6l-2.8-8.3
			c-1.1-3.4,0.7-7,4.1-8.1c3.4-1.1,7,0.7,8.1,4.1l2.8,8.3l8-2.7c3.4-1.1,7,0.7,8.1,4.1c1.1,3.4-0.7,7-4.1,8.1l-8,2.7l5.4,16l8-2.7
			c3.4-1.1,7,0.7,8.1,4.1C102.9,68.3,101.2,72,97.8,73.1z"/>
	</g>
</g>
</svg>
