<?xml version="1.0" encoding="utf-8"?>
<!-- Generator: Adobe Illustrator 21.0.0, SVG Export Plug-In . SVG Version: 6.00 Build 0)  -->
<svg version="1.1" id="Слой_1" xmlns="http://www.w3.org/2000/svg" xmlns:xlink="http://www.w3.org/1999/xlink" x="0px" y="0px"
	 viewBox="0 0 1952.8 298" style="enable-background:new 0 0 1952.8 298;" xml:space="preserve">
<style type="text/css">
	.st0{fill:#2196F3;stroke:#2196F3;stroke-miterlimit:10;}
	.st1{fill:url(#SVGID_1_);}
	.st2{fill:url(#SVGID_2_);}
	.st3{opacity:5.000000e-02;}
	.st4{fill:#FFFFFF;}
	.st5{fill:none;stroke:#FFFFFF;stroke-width:0.803;stroke-miterlimit:10;}
	.st6{fill:url(#SVGID_3_);stroke:#FFFFFF;stroke-width:0.8032;stroke-miterlimit:10;}
	.st7{fill:none;stroke:#FFFFFF;stroke-miterlimit:10;}
	.st8{fill:#155AC2;}
	.st9{fill:#8CC63F;}
	.st10{fill:#E6E6E6;}
	.st11{fill:#F2F2F2;}
	.st12{clip-path:url(#SVGID_9_);}
	.st13{fill:#D3EAFD;}
	.st14{fill:#A6D5FA;}
	.st15{fill:#7AC0F8;}
	.st16{fill:#ECEFF7;}
	.st17{fill:#FFC004;}
	.st18{fill:none;stroke:#999999;stroke-miterlimit:10;}
	.st19{fill-rule:evenodd;clip-rule:evenodd;fill:#FFFFFF;}
	.st20{fill:url(#SVGID_10_);}
	.st21{fill:none;stroke:#FFFFFF;stroke-width:4;stroke-miterlimit:10;}
	.st22{fill:#FFCD36;}
	.st23{fill:url(#SVGID_11_);}
	.st24{fill:none;stroke:#3C5DA1;stroke-width:4;stroke-miterlimit:10;}
	.st25{fill:none;stroke:#D4D7DE;stroke-miterlimit:10;}
</style>
<g class="st3">
	<path class="st4" d="M51.4,183.6v109.7H6.5V18.6h77.6c35.4,0,61.7,6.6,78.7,19.9c17,13.3,25.5,33.3,25.5,60.1
		c0,34.2-17.8,58.5-53.3,73.1l77.6,121.5h-51.1L95.7,183.6H51.4z M51.4,146.4h31.2c20.9,0,36.1-3.9,45.5-11.6
		c9.4-7.8,14.1-19.3,14.1-34.6c0-15.5-5.1-26.7-15.2-33.4c-10.1-6.8-25.4-10.1-45.8-10.1H51.4V146.4z"/>
	<path class="st4" d="M338.4,297c-32.3,0-57.6-9.4-75.8-28.3c-18.2-18.8-27.3-44.8-27.3-77.8c0-33.9,8.5-60.6,25.4-80
		c16.9-19.4,40.1-29.1,69.7-29.1c27.4,0,49.1,8.3,65,25c15.9,16.7,23.9,39.6,23.9,68.7v23.9H280.7c0.6,20.2,6.1,35.7,16.3,46.5
		c10.3,10.8,24.7,16.2,43.4,16.2c12.3,0,23.7-1.2,34.3-3.5c10.6-2.3,21.9-6.2,34.1-11.6v35.9c-10.8,5.1-21.7,8.8-32.7,10.9
		C365.1,295.9,352.5,297,338.4,297z M330.3,115.2c-14,0-25.3,4.4-33.7,13.3c-8.5,8.9-13.5,21.9-15.1,38.9h94.3
		c-0.3-17.2-4.4-30.1-12.4-39C355.3,119.6,344.3,115.2,330.3,115.2z"/>
	<path class="st4" d="M599.3,293.2l-8.8-28.9h-1.5c-10,12.6-20.1,21.3-30.2,25.8c-10.1,4.6-23.2,6.9-39.1,6.9
		c-20.4,0-36.3-5.5-47.8-16.5c-11.5-11-17.2-26.6-17.2-46.8c0-21.4,7.9-37.6,23.9-48.5c15.9-10.9,40.1-16.8,72.7-17.8l35.9-1.1
		v-11.1c0-13.3-3.1-23.2-9.3-29.8c-6.2-6.6-15.8-9.9-28.8-9.9c-10.6,0-20.8,1.6-30.6,4.7c-9.8,3.1-19.2,6.8-28.2,11.1l-14.3-31.6
		c11.3-5.9,23.6-10.4,37-13.4c13.4-3.1,26-4.6,37.9-4.6c26.4,0,46.4,5.8,59.8,17.3c13.5,11.5,20.2,29.6,20.2,54.3v139.9H599.3z
		 M533.5,263.2c16,0,28.9-4.5,38.6-13.4c9.7-9,14.6-21.5,14.6-37.7v-18l-26.7,1.1c-20.8,0.8-35.9,4.2-45.4,10.4
		c-9.5,6.2-14.2,15.7-14.2,28.5c0,9.3,2.8,16.4,8.3,21.5C514.2,260.7,522.5,263.2,533.5,263.2z"/>
	<path class="st4" d="M776.2,297c-31.4,0-55.3-9.2-71.7-27.5c-16.3-18.3-24.5-44.7-24.5-79c0-34.9,8.5-61.8,25.6-80.6
		c17.1-18.8,41.8-28.2,74.1-28.2c21.9,0,41.6,4.1,59.2,12.2l-13.3,35.5c-18.7-7.3-34.1-10.9-46.2-10.9c-35.9,0-53.9,23.9-53.9,71.6
		c0,23.3,4.5,40.8,13.4,52.5c9,11.7,22.1,17.6,39.3,17.6c19.7,0,38.3-4.9,55.8-14.6V284c-7.9,4.6-16.3,8-25.3,10
		C799.8,296,789,297,776.2,297z"/>
	<path class="st4" d="M960.2,261.3c10.8,0,21.5-1.7,32.3-5.1v33.2c-4.9,2.1-11.2,3.9-18.9,5.4c-7.7,1.4-15.7,2.2-23.9,2.2
		c-41.8,0-62.7-22-62.7-66.1V118.9h-28.4V99.4l30.4-16.2l15-43.9h27.2v46.2h59.2v33.4h-59.2v111.2c0,10.6,2.7,18.5,8,23.6
		C944.6,258.8,951.6,261.3,960.2,261.3z"/>
	<path class="st4" d="M1164,293.2l-8.8-28.9h-1.5c-10,12.6-20.1,21.3-30.2,25.8c-10.1,4.6-23.2,6.9-39.1,6.9
		c-20.4,0-36.3-5.5-47.8-16.5c-11.5-11-17.2-26.6-17.2-46.8c0-21.4,8-37.6,23.9-48.5c15.9-10.9,40.1-16.8,72.7-17.8l35.9-1.1v-11.1
		c0-13.3-3.1-23.2-9.3-29.8c-6.2-6.6-15.8-9.9-28.8-9.9c-10.6,0-20.8,1.6-30.6,4.7c-9.8,3.1-19.2,6.8-28.2,11.1l-14.3-31.6
		c11.3-5.9,23.6-10.4,37-13.4c13.4-3.1,26-4.6,37.9-4.6c26.4,0,46.4,5.8,59.8,17.3c13.5,11.5,20.2,29.6,20.2,54.3v139.9H1164z
		 M1098.3,263.2c16,0,28.9-4.5,38.6-13.4c9.7-9,14.6-21.5,14.6-37.7v-18l-26.7,1.1c-20.8,0.8-35.9,4.2-45.4,10.4
		c-9.5,6.2-14.2,15.7-14.2,28.5c0,9.3,2.8,16.4,8.3,21.5C1079,260.7,1087.3,263.2,1098.3,263.2z"/>
	<path class="st4" d="M1340.9,297c-31.4,0-55.3-9.2-71.7-27.5c-16.3-18.3-24.5-44.7-24.5-79c0-34.9,8.5-61.8,25.6-80.6
		c17.1-18.8,41.8-28.2,74.1-28.2c21.9,0,41.6,4.1,59.2,12.2l-13.3,35.5c-18.7-7.3-34.1-10.9-46.2-10.9c-35.9,0-53.9,23.9-53.9,71.6
		c0,23.3,4.5,40.8,13.4,52.5c9,11.7,22.1,17.6,39.3,17.6c19.7,0,38.3-4.9,55.8-14.6V284c-7.9,4.6-16.3,8-25.3,10
		C1364.6,296,1353.7,297,1340.9,297z"/>
	<path class="st4" d="M1490.3,183.6l25-31.2l62.7-66.9h50.9l-83.6,89.2l88.8,118.5h-51.8l-66.7-91.1l-24.2,19.9v71.2h-43.8V1h43.8
		v142.6l-2.3,40H1490.3z"/>
	<path class="st4" d="M1711.7,293.2h-44.1V1h44.1V293.2z"/>
	<path class="st4" d="M1865.5,297c-32.3,0-57.6-9.4-75.8-28.3c-18.2-18.8-27.3-44.8-27.3-77.8c0-33.9,8.5-60.6,25.4-80
		c16.9-19.4,40.1-29.1,69.7-29.1c27.4,0,49.1,8.3,65,25c15.9,16.7,23.9,39.6,23.9,68.7v23.9h-138.4c0.6,20.2,6.1,35.7,16.3,46.5
		c10.3,10.8,24.7,16.2,43.4,16.2c12.3,0,23.7-1.2,34.3-3.5c10.6-2.3,21.9-6.2,34.1-11.6v35.9c-10.8,5.1-21.7,8.8-32.7,10.9
		C1892.3,295.9,1879.7,297,1865.5,297z M1857.4,115.2c-14,0-25.3,4.4-33.7,13.3c-8.5,8.9-13.5,21.9-15.1,38.9h94.3
		c-0.3-17.2-4.4-30.1-12.4-39C1882.5,119.6,1871.5,115.2,1857.4,115.2z"/>
</g>
</svg>
